<?xml version="1.0" encoding="UTF-8"?>
<svg id="Layer_2" data-name="Layer 2" xmlns="http://www.w3.org/2000/svg" viewBox="0 0 204.93 185.23">
  <g id="Layer_1-2" data-name="Layer 1">
    <path d="M192.38,99.91c-1.14-1.32-7.67-7.03-7.67-7.68,29.57-22.19,25.89-67.28-6.39-85.21-18.43-10.24-49.13-9.89-65.1,5.11L20.63,115.96V.39H0v184.63h19.91l.72-.72v-25.42c0-7.69,6.74-19.43,11.75-25.18l23.02-25.4,52.3,58.98c12.98,16.05,31.94,19.78,51.77,17.2,40.38-5.25,60.09-53.24,32.91-84.57ZM121.15,151.45l-51.95-58.74,53.14-59.96c21.81-21.53,65.07-12.74,61.89,22.54-1.11,12.34-14.26,27.1-27.1,27.1h-34.3v20.62h35.26c12.13,0,25.02,15.04,26.15,26.62,3.52,36.21-41.57,44.57-63.09,21.82Z"/>
  </g>
</svg>